<svg width="30" height="30" viewBox="0 0 30 30" fill="none" xmlns="http://www.w3.org/2000/svg">
<g clip-path="url(#clip0)">
<path d="M23.5499 8.76085C22.5069 3.69234 17.5526 0.429017 12.4841 1.47197C8.14398 2.36508 5.02296 6.17635 5.00305 10.6073C5.00305 10.8184 5.01177 11.0345 5.03051 11.2631C1.94292 11.59 -0.295132 14.3579 0.0316922 17.4454C0.334624 20.3073 2.74982 22.4783 5.62765 22.4755H6.28352C6.26853 22.2681 6.25231 22.062 6.25231 21.8508C6.25231 17.3661 9.88791 13.7304 14.3727 13.7304C18.8575 13.7304 22.493 17.3661 22.493 21.8508C22.493 22.0619 22.4768 22.2681 22.4618 22.4755H23.1177C26.9083 22.4858 29.9896 19.4213 29.9999 15.6307C30.0099 11.9934 27.1806 8.97998 23.5499 8.76085Z" fill="#BBDEFB"/>
<path d="M14.3725 28.7221C18.1673 28.7221 21.2436 25.6458 21.2436 21.851C21.2436 18.0563 18.1673 14.98 14.3725 14.98C10.5777 14.98 7.50146 18.0563 7.50146 21.851C7.50146 25.6458 10.5777 28.7221 14.3725 28.7221Z" fill="#4CAF50"/>
<path d="M14.3725 26.2236C14.0275 26.2236 13.7478 25.9439 13.7478 25.5989V18.1032C13.7478 17.7582 14.0275 17.4785 14.3725 17.4785C14.7174 17.4785 14.9971 17.7582 14.9971 18.1032V25.5989C14.9971 25.9439 14.7174 26.2236 14.3725 26.2236Z" fill="#FAFAFA"/>
<path d="M16.8711 21.2264C16.7054 21.2267 16.5462 21.1611 16.4289 21.044L14.3725 18.9864L12.3162 21.044C12.0681 21.2837 11.6726 21.2768 11.4329 21.0286C11.1991 20.7866 11.1991 20.4028 11.4329 20.1607L13.9315 17.6621C14.1754 17.4183 14.5708 17.4183 14.8148 17.6621L17.3134 20.1607C17.5569 20.405 17.5563 20.8006 17.312 21.0441C17.195 21.1608 17.0365 21.2263 16.8711 21.2264Z" fill="#FAFAFA"/>
</g>
<defs>
<clipPath id="clip0">
<rect width="30" height="30" fill="white"/>
</clipPath>
</defs>
</svg>
