<svg width="30" height="30" viewBox="0 0 30 30" fill="none" xmlns="http://www.w3.org/2000/svg">
<path d="M10.3125 23.4375H19.6875V29.0625H10.3125V23.4375Z" fill="#D7E1F2"/>
<path d="M30 21.5625H0V5.625C0 4.58908 0.839081 3.75 1.875 3.75H28.125C29.1609 3.75 30 4.58908 30 5.625V21.5625Z" fill="#80DEEA"/>
<path d="M30 11.25H20.625V1.875C20.625 0.839081 21.4641 0 22.5 0H28.125C29.1609 0 30 0.839081 30 1.875V11.25Z" fill="#48C8EF"/>
<path d="M20.625 10.3125V13.125C20.625 14.1609 21.4641 15 22.5 15H28.125C29.1609 15 30 14.1609 30 13.125V10.3125H20.625Z" fill="#E4EDFB"/>
<path d="M18.2007 12.1875H9.375C8.8575 12.1875 8.4375 11.7675 8.4375 11.25C8.4375 10.7325 8.8575 10.3125 9.375 10.3125H13.6743L12.4622 9.10034L13.7878 7.77466L18.2007 12.1875Z" fill="white"/>
<path d="M8.71216 18.4753L4.29932 14.0625H13.125C13.6425 14.0625 14.0625 14.4825 14.0625 15C14.0625 15.5175 13.6425 15.9375 13.125 15.9375H8.82568L10.0378 17.1497L8.71216 18.4753Z" fill="white"/>
<path d="M4.6875 10.3125H6.5625V12.1875H4.6875V10.3125Z" fill="white"/>
<path d="M15.9375 14.0625H17.8125V15.9375H15.9375V14.0625Z" fill="white"/>
<path d="M21.5625 30H8.4375C7.92 30 7.5 29.58 7.5 29.0625C7.5 28.545 7.92 28.125 8.4375 28.125H21.5625C22.08 28.125 22.5 28.545 22.5 29.0625C22.5 29.58 22.08 30 21.5625 30Z" fill="#E4EDFB"/>
<path d="M28.125 25.3125H1.875C0.839081 25.3125 0 24.4734 0 23.4375V20.625H30V23.4375C30 24.4734 29.1609 25.3125 28.125 25.3125Z" fill="#E4EDFB"/>
</svg>
