<svg width="30" height="30" viewBox="0 0 30 30" fill="none" xmlns="http://www.w3.org/2000/svg">
<g clip-path="url(#clip0)">
<path d="M14.6301 10.4109L11.9248 7.85861C11.5895 7.54232 11.0614 7.55773 10.7451 7.89294L10.0376 8.64288C9.72127 8.9781 9.73668 9.50626 10.0719 9.82255L12.7773 12.3748L14.6301 10.4109Z" fill="#C9E0FD"/>
<path d="M24.3625 10.4109L27.0679 7.85861C27.4032 7.54232 27.9313 7.55773 28.2476 7.89294L28.9551 8.64288C29.2714 8.9781 29.256 9.50626 28.9208 9.82255L26.2154 12.3748L24.3625 10.4109Z" fill="#C9E0FD"/>
<path d="M6.51798 23.6587H17.9538V25.9097H6.51798C5.89636 25.9097 5.39246 25.4058 5.39246 24.7842C5.39246 24.1627 5.89642 23.6587 6.51798 23.6587V23.6587Z" fill="#FFD064"/>
<path d="M4.04899 19.3674H17.9539V21.6185H4.04899C3.42737 21.6185 2.92346 21.1146 2.92346 20.493C2.92346 19.8713 3.42737 19.3674 4.04899 19.3674V19.3674Z" fill="#FFD064"/>
<path d="M1.12553 15.0759H17.9538V17.327H1.12553C0.503906 17.327 0 16.8231 0 16.2015C0 15.5798 0.503906 15.0759 1.12553 15.0759V15.0759Z" fill="#FFD064"/>
<path d="M17.7474 3.64478H21.3839V7.69905H17.7474V3.64478Z" fill="#EAF2FF"/>
<path d="M19.8893 3.64469V2.56557L19.5657 2.20557H17.0893C16.2944 2.20557 15.6501 2.84986 15.6501 3.64469C15.6501 4.43951 16.2944 5.08381 17.0893 5.08381H18.4502C19.245 5.08387 19.8893 4.43951 19.8893 3.64469V3.64469Z" fill="#E07F84"/>
<path d="M22.0422 2.20557H19.5657V3.64469C19.5657 4.43951 18.9214 5.08381 18.1266 5.08381H22.0422C22.837 5.08381 23.4813 4.43951 23.4813 3.64469C23.4813 2.84986 22.8369 2.20557 22.0422 2.20557V2.20557Z" fill="#DB636E"/>
<path d="M26.6911 17.3604C26.6911 12.3009 23.1594 8.06702 18.427 6.98755C13.2 7.55491 9.13147 11.9825 9.13147 17.3604C9.13147 22.7383 13.2 27.1659 18.427 27.7333C23.1594 26.6538 26.6911 22.4199 26.6911 17.3604V17.3604Z" fill="#E07F84"/>
<path d="M24.1533 24.2567C25.7358 22.3997 26.691 19.9917 26.691 17.3605C26.691 14.7293 25.7358 12.3213 24.1533 10.4642C22.84 9.58885 21.2624 9.07861 19.5657 9.07861C17.7212 9.07861 16.0174 9.68166 14.6409 10.7013C14.0674 11.1262 13.5506 11.6235 13.1041 12.1796C11.9652 13.5982 11.2838 15.3998 11.2838 17.3605C11.2838 21.9345 14.9917 25.6424 19.5657 25.6424C21.2624 25.6424 22.84 25.1321 24.1533 24.2567Z" fill="#EAF2FF"/>
<path d="M19.5658 6.92627C18.8972 6.92627 18.2436 6.9899 17.61 7.11008C22.4377 8.02572 26.0884 12.2664 26.0884 17.3606C26.0884 22.4547 22.4377 26.6955 17.61 27.6111C18.2436 27.7313 18.8972 27.7949 19.5658 27.7949C25.3285 27.7949 30 23.1233 30 17.3606C30 11.5979 25.3285 6.92627 19.5658 6.92627V6.92627Z" fill="#DB636E"/>
<path d="M22.7537 9.71484C24.8047 11.6202 26.0884 14.3402 26.0884 17.3606C26.0884 20.3809 24.8047 23.1009 22.7537 25.0063C25.7451 23.7575 27.8477 20.8048 27.8477 17.3606C27.8477 13.9164 25.7451 10.9636 22.7537 9.71484V9.71484Z" fill="#DBE8F9"/>
<path d="M24.7542 16.7591C24.7532 16.4765 24.5229 16.2485 24.2403 16.2503H24.24C24.2367 16.2503 24.2335 16.2503 24.2302 16.2503C24.1322 16.2487 24.0475 16.1817 24.0211 16.0873C23.9071 15.6811 23.7374 15.2873 23.5123 14.9179C23.5378 14.8596 23.5742 14.8053 23.6215 14.7587C23.82 14.5629 23.8131 14.2346 23.6152 14.0381L22.7899 13.2186C22.5907 13.0207 22.2651 13.016 22.0694 13.2173C22.0639 13.2229 22.0583 13.2284 22.0527 13.2337C21.9835 13.2986 21.8789 13.3076 21.7961 13.2611C21.4589 13.0716 21.1033 12.9269 20.7381 12.8271C20.6434 12.8013 20.5757 12.717 20.5735 12.6188C20.5734 12.6156 20.5733 12.6124 20.5733 12.6092V12.609C20.5715 12.3259 20.341 12.0976 20.0578 12.0986L18.8914 12.1027C18.6092 12.1037 18.3821 12.3348 18.386 12.6168C18.386 12.6201 18.386 12.6233 18.3859 12.6265C18.3844 12.7246 18.3172 12.8093 18.2228 12.8359C17.8582 12.9382 17.5037 13.0854 17.1677 13.2772C17.0853 13.3243 16.9807 13.316 16.9111 13.2516C16.9054 13.2463 16.8998 13.2409 16.8943 13.2354C16.6971 13.0354 16.3716 13.0423 16.1737 13.2416L15.3542 14.0669C15.1578 14.2648 15.1532 14.5931 15.353 14.7876C15.3553 14.7897 15.3575 14.7919 15.3597 14.7941C15.4306 14.8657 15.4445 14.9756 15.3952 15.0635C15.2065 15.3999 15.0624 15.7545 14.9629 16.1187C14.9363 16.2158 14.8476 16.2829 14.7469 16.2835H14.745H14.7447C14.4616 16.2854 14.2334 16.516 14.2344 16.799L14.2384 17.9605C14.2394 18.2433 14.4695 18.4718 14.7523 18.4708H14.7526C14.7558 18.4708 14.759 18.4708 14.7622 18.4709C14.8603 18.4724 14.9451 18.5396 14.9716 18.6341C15.0738 18.9982 15.2208 19.3524 15.4123 19.688C15.4617 19.7744 15.4484 19.8828 15.3792 19.9543C15.3765 19.957 15.3739 19.9598 15.3711 19.9626C15.1726 20.1583 15.1796 20.4867 15.3774 20.6831L16.2027 21.5026C16.402 21.7004 16.7275 21.7051 16.9233 21.5038C16.9288 21.4982 16.9343 21.4927 16.9399 21.4875C17.0091 21.4226 17.1137 21.4136 17.1964 21.46C17.5337 21.6496 17.8892 21.7943 18.2546 21.894C18.3492 21.9199 18.4169 22.0041 18.4191 22.1022C18.4192 22.1054 18.4193 22.1087 18.4193 22.1119V22.1121C18.4193 22.3947 18.6488 22.6235 18.9314 22.6225L20.0911 22.6184C20.3748 22.6174 20.6047 22.3882 20.6065 22.1045V22.1043C20.6065 22.1012 20.6065 22.098 20.6066 22.0949C20.608 21.9966 20.6754 21.9117 20.77 21.8852C21.1344 21.7829 21.4888 21.6358 21.8246 21.444C21.9071 21.3969 22.0119 21.4052 22.0817 21.4698C22.0872 21.4749 22.0927 21.4802 22.0981 21.4856C22.2954 21.6856 22.6208 21.6788 22.8188 21.4795L23.6383 20.6542C23.8347 20.4563 23.8393 20.128 23.6394 19.9335C23.5919 19.8873 23.5551 19.8332 23.5291 19.7751C23.7516 19.4041 23.9186 19.0092 24.0297 18.6022C24.0555 18.5076 24.1398 18.4399 24.2378 18.4377C24.2411 18.4376 24.2443 18.4375 24.2476 18.4375H24.2478C24.5306 18.4365 24.7592 18.2064 24.7582 17.9236L24.7542 16.7591ZM19.5349 19.7221C18.2307 19.7221 17.1734 18.6648 17.1734 17.3606C17.1734 16.0563 18.2307 14.999 19.5349 14.999C20.8392 14.999 21.8965 16.0563 21.8965 17.3606C21.8965 18.6649 20.8392 19.7221 19.5349 19.7221V19.7221Z" fill="#FFE07D"/>
<path d="M19.535 20.1746C17.9832 20.1746 16.7207 18.9122 16.7207 17.3604C16.7207 15.8086 17.9832 14.5461 19.535 14.5461C21.0868 14.5461 22.3492 15.8086 22.3492 17.3604C22.3493 18.9122 21.0868 20.1746 19.535 20.1746V20.1746ZM19.535 15.4515C18.4824 15.4515 17.6262 16.3078 17.6262 17.3603C17.6262 18.4129 18.4825 19.2691 19.535 19.2691C20.5875 19.2691 21.4438 18.4129 21.4438 17.3603C21.4438 16.3078 20.5875 15.4515 19.535 15.4515Z" fill="#FFC250"/>
</g>
<defs>
<clipPath id="clip0">
<rect width="30" height="30" fill="white"/>
</clipPath>
</defs>
</svg>
