<svg width="30" height="30" viewBox="0 0 30 30" fill="none" xmlns="http://www.w3.org/2000/svg">
<path d="M19.7865 19.6172C18.3889 21.0148 18.5636 23.8351 18.5636 23.8351H11.4754C11.4754 23.8351 11.6251 21.0148 10.2524 19.6172C8.72997 18.2694 7.75659 16.3226 7.75659 14.1513C7.75659 10.1579 11.0012 6.91333 14.9945 6.91333C18.9879 6.91333 22.2325 10.1579 22.2325 14.1513C22.2325 16.3226 21.2841 18.2694 19.7865 19.6172Z" fill="#FFD517"/>
<path d="M18.7632 26.0564C18.7632 26.4308 18.4637 26.7303 18.0893 26.7303H11.9246C11.5502 26.7303 11.2507 26.4308 11.2507 26.0564C11.2507 25.6821 11.5502 25.3826 11.9246 25.3826H18.0644C18.4387 25.3826 18.7632 25.6821 18.7632 26.0564Z" fill="#E5E5E5"/>
<path d="M17.8396 28.8519C17.8396 29.2262 17.5401 29.5257 17.1658 29.5257H12.8479C12.4736 29.5257 12.1741 29.2262 12.1741 28.8519C12.1741 28.4775 12.4736 28.178 12.8479 28.178H17.1658C17.5401 28.178 17.8396 28.4775 17.8396 28.8519Z" fill="#E5E5E5"/>
<path d="M20.1608 19.8668C21.7831 18.3943 22.7065 16.3227 22.7065 14.1514C22.7065 9.90843 19.2373 6.43921 14.9944 6.43921C10.7514 6.43921 7.28223 9.90843 7.28223 14.1514C7.28223 16.3727 8.2556 18.4941 9.90286 19.9417C11.1258 21.1647 11.001 23.7603 11.001 23.7853C11.001 23.9101 11.0509 24.0349 11.1258 24.1347C11.2257 24.2345 11.3504 24.2845 11.4752 24.2845H18.5385C18.6633 24.2845 18.788 24.2345 18.8879 24.1347C18.9877 24.0349 19.0127 23.9101 19.0127 23.7853C19.0127 23.7603 18.8879 21.1647 20.1108 19.9417C20.1358 19.9167 20.1608 19.8918 20.1608 19.8668ZM19.4619 19.2429C19.412 19.2678 19.3871 19.3177 19.3621 19.3677C18.2639 20.5407 18.0892 22.4625 18.0643 23.361H11.9494C11.9245 22.4375 11.7248 20.4409 10.5518 19.2678C9.07923 17.97 8.23065 16.1231 8.23065 14.1763C8.23065 10.4326 11.2756 7.41259 14.9944 7.41259C18.7381 7.41259 21.7581 10.4575 21.7581 14.1763C21.7581 16.0981 20.9345 17.97 19.4619 19.2429Z" fill="#210B20"/>
<path d="M14.9945 8.43604C14.7449 8.43604 14.5203 8.6357 14.5203 8.91025C14.5203 9.15983 14.7199 9.38445 14.9945 9.38445C17.7898 9.38445 20.061 11.6557 20.061 14.451C20.061 14.7006 20.2607 14.9252 20.5352 14.9252C20.7848 14.9252 21.0094 14.7256 21.0094 14.451C21.0094 11.1315 18.3139 8.43604 14.9945 8.43604Z" fill="#210B20"/>
<path d="M19.2375 26.0565C19.2375 25.4076 18.7134 24.9084 18.0894 24.9084H11.9247C11.2758 24.9084 10.7766 25.4326 10.7766 26.0565C10.7766 26.7055 11.3007 27.2046 11.9247 27.2046H18.0645C18.7134 27.2046 19.2375 26.7055 19.2375 26.0565ZM18.0645 26.2562H11.9247C11.7999 26.2562 11.725 26.1564 11.725 26.0565C11.725 25.9317 11.8249 25.8569 11.9247 25.8569H18.0645C18.1893 25.8569 18.2641 25.9567 18.2641 26.0565C18.2891 26.1813 18.1893 26.2562 18.0645 26.2562Z" fill="#210B20"/>
<path d="M17.1658 27.7039H12.848C12.1991 27.7039 11.7 28.228 11.7 28.8519C11.7 29.5009 12.2241 30 12.848 30H17.1658C17.8148 30 18.3139 29.4759 18.3139 28.8519C18.3139 28.228 17.7898 27.7039 17.1658 27.7039ZM17.1658 29.0516H12.848C12.7232 29.0516 12.6484 28.9518 12.6484 28.8519C12.6484 28.7272 12.7482 28.6523 12.848 28.6523H17.1658C17.2906 28.6523 17.3655 28.7521 17.3655 28.8519C17.3655 28.9767 17.2906 29.0516 17.1658 29.0516Z" fill="#210B20"/>
<path d="M15.4687 3.66889V0.47421C15.4687 0.224626 15.269 0 14.9945 0C14.7449 0 14.5203 0.199667 14.5203 0.47421V3.69384C14.5203 3.94343 14.7199 4.16805 14.9945 4.16805C15.269 4.1431 15.4687 3.94343 15.4687 3.66889Z" fill="#210B20"/>
<path d="M22.8565 2.37105C22.6318 2.2213 22.3573 2.29617 22.2075 2.49584L20.4355 5.16639C20.2858 5.39102 20.3606 5.66556 20.5603 5.81531C20.6352 5.86523 20.735 5.89018 20.8099 5.89018C20.9596 5.89018 21.1094 5.81531 21.2092 5.69052L22.9813 3.01997C23.131 2.8203 23.0561 2.5208 22.8565 2.37105Z" fill="#210B20"/>
<path d="M9.35385 5.79045C9.42873 5.79045 9.52856 5.76549 9.60344 5.71557C9.82806 5.56582 9.87798 5.29128 9.75319 5.06665L8.03105 2.37114C7.8813 2.14652 7.60676 2.0966 7.38213 2.22139C7.1575 2.37114 7.10759 2.64569 7.23238 2.87031L8.95451 5.56582C9.05435 5.71557 9.2041 5.79045 9.35385 5.79045Z" fill="#210B20"/>
<path d="M2.73988 8.03653L5.56018 9.55898C5.63505 9.6089 5.70993 9.6089 5.7848 9.6089C5.95951 9.6089 6.10926 9.50906 6.2091 9.35931C6.33389 9.13469 6.25901 8.83519 6.00943 8.7104L3.18913 7.18794C2.96451 7.06315 2.665 7.13803 2.54021 7.38761C2.44038 7.63719 2.51525 7.91173 2.73988 8.03653Z" fill="#210B20"/>
<path d="M24.204 9.63401C24.2789 9.63401 24.3537 9.60905 24.4286 9.5841L27.2489 8.06164C27.4735 7.93685 27.5734 7.6623 27.4486 7.41272C27.3238 7.1881 27.0493 7.08826 26.7997 7.21305L23.9794 8.73551C23.7547 8.8603 23.6549 9.13485 23.7797 9.38443C23.8546 9.53418 24.0293 9.63401 24.204 9.63401Z" fill="#210B20"/>
</svg>
