<svg width="30" height="30" viewBox="0 0 30 30" fill="none" xmlns="http://www.w3.org/2000/svg">
<path d="M23.9848 4.51465C23.8617 4.32123 23.6684 4.18066 23.4398 4.12787L16.9535 2.66883C16.6899 2.61615 16.4262 2.68641 16.2153 2.84467C16.0044 3.00281 15.8813 3.26654 15.8813 3.53021V21.1962H3.22506C2.73293 21.1962 2.34615 21.6357 2.34615 22.1278C2.34615 22.5322 2.62746 22.9012 3.0317 22.9891L7.25051 23.9384L18.4652 28.1923L21.2778 24.0087L23.7915 6.60645L24.1079 5.18262C24.1606 4.9541 24.1078 4.70795 23.9848 4.51465ZM6.15234 0C5.92383 0 5.69531 0.0878906 5.53717 0.263613L0.26373 5.53705C0.0878906 5.69531 0 5.92383 0 6.15234L7.97109 7.91016L6.15234 0Z" fill="url(#paint0_linear)"/>
<path d="M29.9438 9.92859C29.8735 9.70008 29.7152 9.52436 29.5043 9.41889L23.7914 6.60645L19.5199 25.7665C19.4671 25.9951 19.3266 26.1884 19.1331 26.3115C18.9163 26.447 18.6493 26.4805 18.4652 26.4345L7.25045 23.9384L19.3969 29.9149C19.9119 30.1358 20.3799 29.9001 20.5746 29.5107L29.9085 10.5966C30.014 10.3857 30.0316 10.1395 29.9438 9.92859ZM17.6391 22.0752V0.878906C17.6391 0.38666 17.2524 0 16.7602 0H6.15234V5.27344C6.15234 5.75883 5.75883 6.15234 5.27344 6.15234H0V22.0752C0 22.5673 0.38666 22.9541 0.878906 22.9541H16.7602C17.2524 22.9541 17.6391 22.5673 17.6391 22.0752Z" fill="url(#paint1_linear)"/>
<path d="M9.11677 15.179H8.61755C8.26596 15.179 7.98022 15.4647 7.98022 15.8163V16.5056C7.98022 16.8572 8.26596 17.1429 8.61755 17.1429H9.11677C9.46837 17.1429 9.7541 16.8572 9.7541 16.5056V15.8163C9.7541 15.4636 9.46837 15.179 9.11677 15.179Z" fill="white"/>
<path d="M5.59678 9.84249L6.51769 9.95721C6.80979 9.99332 7.08702 9.8255 7.19218 9.55039C7.32495 9.20305 7.50977 8.92901 7.74664 8.72932C8.0823 8.44678 8.49973 8.30445 8.99896 8.30445C9.51624 8.30445 9.92837 8.44041 10.2343 8.71126C10.5402 8.98318 10.6921 9.30821 10.6921 9.68954C10.6921 9.96358 10.606 10.2143 10.434 10.4416C10.3224 10.586 9.97936 10.8898 9.40684 11.354C8.83326 11.8182 8.45194 12.2366 8.26075 12.6084C8.06531 12.9887 7.99733 13.4104 7.98033 13.8331C7.96547 14.1953 8.25438 14.497 8.61765 14.497H9.13812C9.46952 14.497 9.74356 14.2431 9.7733 13.9139C9.79455 13.677 9.83385 13.4975 9.89334 13.3753C9.99318 13.1661 10.2513 12.8899 10.6655 12.5458C11.4675 11.8819 11.9901 11.3572 12.2355 10.9705C12.4798 10.585 12.603 10.176 12.603 9.74371C12.603 8.963 12.2705 8.27789 11.6045 7.68944C10.9396 7.10099 10.0431 6.80676 8.91718 6.80676C7.8465 6.80676 6.98294 7.09674 6.32438 7.67776C5.76355 8.17273 5.42259 8.75906 5.30256 9.43567C5.26537 9.63324 5.40027 9.81806 5.59678 9.84249Z" fill="white"/>
<defs>
<linearGradient id="paint0_linear" x1="12.0641" y1="28.1923" x2="12.0641" y2="0" gradientUnits="userSpaceOnUse">
<stop stop-color="#C3FFE8"/>
<stop offset="0.9973" stop-color="#F0FFF4"/>
</linearGradient>
<linearGradient id="paint1_linear" x1="15" y1="30" x2="15" y2="0" gradientUnits="userSpaceOnUse">
<stop stop-color="#00B59C"/>
<stop offset="1" stop-color="#9CFFAC"/>
</linearGradient>
</defs>
</svg>
