<svg width="30" height="30" viewBox="0 0 30 30" fill="none" xmlns="http://www.w3.org/2000/svg">
<path d="M14.9998 30C23.1851 26.938 28.6097 19.1169 28.6097 10.3777V5.08102C25.8036 5.08102 23.5287 2.80617 23.5287 0H14.9998H6.47091C6.47091 2.80617 4.19606 5.08102 1.38989 5.08102V10.3777C1.38989 19.1169 6.81456 26.938 14.9998 30Z" fill="#FFDB0C"/>
<path d="M15 30C23.1853 26.938 28.6099 19.1169 28.6099 10.3777V5.08102C25.8038 5.08102 23.5289 2.80617 23.5289 0H15C15 0 15 23.3203 15 30Z" fill="#FBBF00"/>
<path d="M13.1041 20.2899L8.59229 15.7782L11.0782 13.2922L13.1041 15.3181L18.922 9.50024L21.4079 11.9861L13.1041 20.2899Z" fill="#F1F1F2"/>
<path d="M15 18.394V13.4222L18.9219 9.50024L21.4078 11.9861L15 18.394Z" fill="#E6E6E6"/>
</svg>
