<svg width="30" height="30" viewBox="0 0 30 30" fill="none" xmlns="http://www.w3.org/2000/svg">
<g clip-path="url(#clip0)">
<path d="M15 30C23.2843 30 30 23.2843 30 15C30 6.71573 23.2843 0 15 0C6.71573 0 0 6.71573 0 15C0 23.2843 6.71573 30 15 30Z" fill="#54C0EB"/>
<path d="M15 26.25C8.8125 26.25 3.75 21.1875 3.75 15C3.75 8.8125 8.8125 3.75 15 3.75C21.1875 3.75 26.25 8.8125 26.25 15C26.25 21.1875 21.1875 26.25 15 26.25Z" fill="#F2F2F2"/>
<path d="M15 22.5C10.875 22.5 7.5 19.125 7.5 15C7.5 10.875 10.875 7.5 15 7.5C19.125 7.5 22.5 10.875 22.5 15C22.5 19.125 19.125 22.5 15 22.5Z" fill="#FF7058"/>
<path d="M15 18.75C12.9375 18.75 11.25 17.0625 11.25 15C11.25 12.9375 12.9375 11.25 15 11.25C17.0625 11.25 18.75 12.9375 18.75 15C18.75 17.0625 17.0625 18.75 15 18.75Z" fill="#CDD6E0"/>
<path d="M15 18.75C12.9375 18.75 11.25 17.0625 11.25 15C11.25 12.9375 12.9375 11.25 15 11.25C17.0625 11.25 18.75 12.9375 18.75 15C18.75 17.0625 17.0625 18.75 15 18.75Z" fill="#FFD15C"/>
<path opacity="0.2" d="M29.875 16.8749C29.625 18.7499 29.0625 20.5 28.1875 22.125L27.375 21.8125L26.3125 19.5625L15.0625 15.5C14.5625 15.3125 14.3125 14.75 14.5 14.25C14.6875 13.75 15.25 13.5 15.75 13.6875L27 17.75L29.25 16.6875L29.875 16.8749Z" fill="#334A5E"/>
<path d="M25.25 6.0625L16.0625 15.25C15.6875 15.625 15.0625 15.625 14.6875 15.25C14.3125 14.875 14.3125 14.25 14.6875 13.875L23.9375 4.75C24.3125 4.375 24.9375 4.375 25.3125 4.75C25.625 5.125 25.625 5.6875 25.25 6.0625Z" fill="#40596B"/>
<path d="M26.125 3.87498L23.1875 6.81252V2.93748L26.125 0V3.87498Z" fill="#FF7058"/>
<path d="M27.0625 6.81254L30 3.875H26.125L23.1875 6.81254H27.0625Z" fill="#F1543F"/>
</g>
<defs>
<clipPath id="clip0">
<rect width="30" height="30" fill="white"/>
</clipPath>
</defs>
</svg>
